<?xml version="1.0" standalone="no"?>
<!DOCTYPE svg PUBLIC "-//W3C//DTD SVG 20010904//EN"
 "http://www.w3.org/TR/2001/REC-SVG-20010904/DTD/svg10.dtd">
<svg version="1.0" xmlns="http://www.w3.org/2000/svg"
 width="700.000000pt" height="700.000000pt" viewBox="0 0 700.000000 700.000000"
 preserveAspectRatio="xMidYMid meet">
<metadata>
Created by potrace 1.11, written by Peter Selinger 2001-2013
</metadata>
<g transform="translate(0.000000,700.000000) scale(0.100000,-0.100000)"
fill="#000000" stroke="none">
<path d="M1543 6318 c-12 -6 -26 -22 -32 -37 -8 -18 -11 -386 -9 -1248 l3
-1222 23 -23 c18 -19 36 -23 98 -26 96 -5 144 8 166 46 16 26 17 79 18 561 0
568 1 575 49 600 10 6 95 12 187 13 93 1 192 7 221 14 164 38 260 131 295 287
17 77 16 645 -2 716 -42 175 -156 271 -375 317 -53 11 -618 13 -642 2z m588
-298 c63 -17 107 -50 131 -100 21 -42 22 -57 22 -290 -1 -224 -2 -248 -20
-279 -35 -61 -79 -75 -240 -79 -97 -3 -148 0 -164 8 -45 24 -50 58 -50 374 0
163 4 306 10 320 15 41 53 54 167 55 56 1 121 -3 144 -9z"/>
<path d="M2993 6322 c-57 -9 -59 -66 -4 -233 22 -68 65 -205 96 -304 31 -99
60 -191 65 -205 5 -14 34 -106 65 -205 31 -99 75 -236 97 -305 l41 -125 1
-572 1 -572 23 -23 c20 -21 31 -23 125 -22 125 1 150 6 165 38 8 18 11 190 12
578 0 304 1 560 3 568 2 8 20 69 41 135 48 151 90 282 161 510 31 99 64 203
73 230 9 28 17 55 18 60 2 6 21 69 44 140 71 222 71 224 56 272 -10 30 -43 40
-130 38 -70 -2 -81 -4 -97 -26 -10 -13 -75 -195 -145 -404 -69 -209 -132 -390
-140 -402 -18 -28 -64 -31 -86 -5 -8 9 -32 73 -53 142 -20 69 -50 166 -65 215
-24 77 -72 234 -112 365 -16 51 -56 110 -76 111 -45 4 -159 4 -179 1z"/>
<path d="M4433 6318 c-12 -6 -26 -22 -32 -37 -8 -18 -11 -386 -9 -1248 l3
-1222 23 -23 c19 -20 35 -24 108 -27 49 -2 96 2 112 8 58 24 57 8 59 594 3
575 3 580 53 607 10 6 88 11 174 11 85 1 185 7 224 14 175 34 277 137 306 309
14 79 15 600 2 676 -20 112 -96 220 -196 274 -108 59 -176 68 -505 71 -186 2
-308 -1 -322 -7z m606 -304 c54 -17 93 -50 118 -97 14 -27 16 -68 16 -277 1
-223 -1 -249 -19 -285 -31 -64 -74 -79 -234 -83 -157 -4 -185 3 -206 53 -18
44 -23 602 -5 648 6 16 25 34 43 42 46 20 225 20 287 -1z"/>
<path d="M3345 3293 c-136 -28 -201 -55 -263 -109 -74 -63 -117 -148 -129
-254 -8 -70 -8 -1635 0 -1716 26 -260 156 -419 384 -470 57 -12 239 -11 302 2
167 35 279 135 336 301 25 71 31 99 40 188 9 95 6 1669 -4 1721 -19 99 -60
178 -121 231 -41 36 -140 81 -215 96 -64 13 -282 20 -330 10z m263 -302 c52
-27 86 -69 108 -133 16 -49 17 -115 17 -843 0 -894 3 -863 -74 -929 -91 -78
-271 -73 -353 8 -67 68 -66 42 -66 910 0 806 1 834 40 906 13 25 17 29 58 64
52 45 198 54 270 17z"/>
<path d="M4429 3289 c-29 -11 -42 -47 -33 -93 2 -15 23 -84 45 -154 45 -141
98 -308 134 -422 12 -41 69 -219 125 -395 l101 -320 0 -545 c0 -300 2 -560 5
-578 8 -44 31 -54 127 -54 137 0 144 1 168 21 l24 19 1 574 2 573 52 160 c29
88 60 187 70 220 10 33 34 110 53 170 19 61 58 182 85 270 28 88 69 219 92
290 76 241 69 269 -74 271 -44 1 -87 -3 -94 -9 -26 -21 -51 -86 -172 -452 -68
-203 -130 -375 -139 -382 -23 -18 -56 -16 -74 5 -10 10 -35 79 -58 153 -22 74
-51 168 -64 209 -13 41 -44 145 -70 230 -46 153 -85 239 -108 241 -64 7 -177
5 -198 -2z"/>
<path d="M1532 3230 c-25 -11 -43 -28 -51 -48 -10 -24 -13 -283 -13 -1209 1
-648 1 -1192 1 -1210 1 -18 11 -44 25 -60 23 -27 26 -28 142 -29 121 -1 157 6
171 35 4 9 10 256 13 548 l5 533 28 27 c27 27 31 28 153 31 143 4 176 -4 201
-52 15 -28 17 -88 18 -547 0 -551 -1 -534 49 -561 27 -15 210 -20 257 -8 22 6
44 21 55 37 16 26 17 95 17 1228 -1 1304 2 1256 -54 1286 -32 17 -219 20 -257
3 -67 -28 -65 -15 -67 -537 0 -339 -4 -478 -12 -493 -23 -40 -62 -50 -203 -49
-128 1 -131 2 -158 28 l-27 27 -5 490 -5 490 -27 26 c-25 25 -33 27 -122 29
-72 2 -105 -2 -134 -15z"/>
</g>
</svg>
